<?xml version="1.0" encoding="UTF-8" standalone="no"?>
<!-- Created with Inkscape (http://www.inkscape.org/) -->

<svg
   version="1.1"
   id="svg2"
   width="618.23999"
   height="497.28"
   viewBox="0 0 618.23999 497.28"
   sodipodi:docname="oi_logo_icon.png"
   inkscape:version="1.1.2 (0a00cf5339, 2022-02-04)"
   xmlns:inkscape="http://www.inkscape.org/namespaces/inkscape"
   xmlns:sodipodi="http://sodipodi.sourceforge.net/DTD/sodipodi-0.dtd"
   xmlns="http://www.w3.org/2000/svg"
   xmlns:svg="http://www.w3.org/2000/svg">
  <defs
     id="defs6" />
  <sodipodi:namedview
     id="namedview4"
     pagecolor="#505050"
     bordercolor="#eeeeee"
     borderopacity="1"
     inkscape:pageshadow="0"
     inkscape:pageopacity="0"
     inkscape:pagecheckerboard="0"
     showgrid="false"
     inkscape:zoom="1.5061937"
     inkscape:cx="309.38916"
     inkscape:cy="248.64"
     inkscape:window-width="1850"
     inkscape:window-height="1009"
     inkscape:window-x="0"
     inkscape:window-y="0"
     inkscape:window-maximized="1"
     inkscape:current-layer="g8" />
  <g
     inkscape:groupmode="layer"
     inkscape:label="Image"
     id="g8">
    <path
       style="fill:#000000;stroke-width:0.24"
       d="m 341.03795,484.63807 c -1.98012,-1.15577 -2.66707,-1.67554 -2.56615,-1.94165 0.1002,-0.26419 174.56263,-302.55697 177.52535,-307.59991 l 0.44448,-0.75655 2.76812,1.57475 c 2.00632,1.14137 2.74039,1.67982 2.66726,1.95655 -0.13411,0.50761 -177.50726,307.74687 -177.86052,308.08345 -0.20073,0.19125 -1.00205,-0.16296 -2.97854,-1.31664 z m 198.47138,-1.986 0.0725,-1.24099 1.68,-0.33336 c 3.82095,-0.75821 9.20995,-2.89018 11.88,-4.69995 1.75937,-1.19251 4.8031,-4.27841 5.42554,-5.50068 1.16167,-2.28125 1.83931,-6.26901 2.23353,-13.14403 0.49373,-8.60981 0.7878,-45.48996 0.69279,-86.88 -0.0863,-37.57246 -0.13733,-42.15154 -0.49649,-44.52 -0.83177,-5.48494 -1.51791,-7.41214 -3.51367,-9.86897 -2.97924,-3.66756 -8.00074,-6.11918 -14.84129,-7.24591 l -2.45957,-0.40512 v -1.26 -1.26 h 33.48 33.48 v 1.27116 1.27114 l -1.62595,0.27883 c -2.71229,0.46509 -7.4935,1.94131 -9.65405,2.98073 -4.01779,1.93291 -7.00848,5.87198 -8.30933,10.94443 -0.79848,3.11352 -0.9888,7.49997 -1.28306,29.57371 -0.28925,21.69778 -0.29866,92.57909 -0.0139,104.52 0.22961,9.62724 0.48101,11.83387 1.62653,14.27743 0.81261,1.7334 3.76361,4.6885 5.81971,5.82778 2.73343,1.51459 7.5324,3.15449 11.04,3.77258 2.88326,0.50808 2.64,0.35266 2.64,1.68679 v 1.19542 h -33.97255 -33.97253 l 0.0725,-1.24099 z M 180.18189,368.43026 C 135.14646,365.26077 93.790382,345.77884 62.851053,313.15836 25.254584,273.51902 8.0368391,219.35488 15.791289,165.11626 22.076012,121.15768 44.718115,81.064951 79.261891,52.727881 117.74407,21.160041 167.56032,7.1989314 217.02189,14.120351 c 47.66764,6.67038 90.48055,32.34811 119.11535,71.44135 40.12577,54.781079 45.40484,128.282809 13.53504,188.451359 -5.30409,10.01388 -12.32805,20.56337 -19.6547,29.52 -7.05667,8.62658 -17.26829,18.76802 -25.87569,25.69783 -28.90215,23.26915 -63.53093,36.77395 -100.56,39.2172 -4.19248,0.27663 -19.38049,0.26506 -23.4,-0.0178 z m 21.26275,-37.91362 c 65.32041,-4.38799 118.9302,-53.27392 129.20887,-117.82358 1.32857,-8.34339 1.79155,-15.47935 1.61165,-24.84 -0.14717,-7.65554 -0.515,-12.20528 -1.5038,-18.6 -6.994,-45.23213 -35.33087,-83.960939 -76.29947,-104.280739 -15.32615,-7.60154 -30.76389,-12.06006 -48.24,-13.93204 -5.58972,-0.59875 -18.99134,-0.73207 -24.96,-0.24831 -43.7441,3.54551 -82.487592,26.51493 -106.502735,63.141089 -12.280022,18.7286 -19.708735,39.73898 -22.147848,62.64 -0.517375,4.85769 -0.727183,17.81082 -0.373188,23.04 2.335865,34.5051 16.526712,65.84326 40.813615,90.13015 24.070286,24.0703 55.505896,38.38464 89.530156,40.76796 4.16491,0.29175 14.55623,0.29475 18.86275,0.006 z"
       id="path12" />
  </g>
</svg>
